{"asset":{"generator":"3D Builder","version":"2.0"},"scene":0,"scenes":[{"nodes":[0,1,4]}],"nodes":[{"mesh":0,"matrix":[39.370079040527344,0,0,0,0,-4.6932791519793682E-6,-39.370075225830078,0,0,39.370075225830078,-4.6932791519793682E-6,0,-0.4929661750793457,1.2716827392578125,-6.17210578918457,1]},{"children":[2,3]},{"mesh":1,"matrix":[39.370079040527344,0,0,0,0,-4.6932791519793682E-6,-39.370075225830078,0,0,39.370075225830078,-4.6932791519793682E-6,0,-0.4929661750793457,1.2716827392578125,-6.17210578918457,1]},{"mesh":2,"matrix":[39.370079040527344,0,0,0,0,-4.6932791519793682E-6,-39.370075225830078,0,0,39.370075225830078,-4.6932791519793682E-6,0,-0.4929661750793457,1.2716827392578125,-6.17210578918457,1]},{"children":[5,6,7,8,9,10,11,12]},{"mesh":3,"matrix":[39.370079040527344,0,0,0,0,-4.6932791519793682E-6,-39.370075225830078,0,0,39.370075225830078,-4.6932791519793682E-6,0,-0.4929661750793457,1.2716827392578125,-6.17210578918457,1]},{"mesh":4,"matrix":[39.370079040527344,0,0,0,0,-4.6932791519793682E-6,-39.370075225830078,0,0,39.370075225830078,-4.6932791519793682E-6,0,-0.4929661750793457,1.2716827392578125,-6.17210578918457,1]},{"mesh":5,"matrix":[39.370079040527344,0,0,0,0,-4.6932791519793682E-6,-39.370075225830078,0,0,39.370075225830078,-4.6932791519793682E-6,0,-0.4929661750793457,1.2716827392578125,-6.17210578918457,1]},{"mesh":6,"matrix":[39.370079040527344,0,0,0,0,-4.6932791519793682E-6,-39.370075225830078,0,0,39.370075225830078,-4.6932791519793682E-6,0,-0.4929661750793457,1.2716827392578125,-6.17210578918457,1]},{"mesh":7,"matrix":[39.370079040527344,0,0,0,0,-4.6932791519793682E-6,-39.370075225830078,0,0,39.370075225830078,-4.6932791519793682E-6,0,-0.4929661750793457,1.2716827392578125,-6.17210578918457,1]},{"mesh":8,"matrix":[39.370079040527344,0,0,0,0,-4.6932791519793682E-6,-39.370075225830078,0,0,39.370075225830078,-4.6932791519793682E-6,0,-0.4929661750793457,1.2716827392578125,-6.17210578918457,1]},{"mesh":9,"matrix":[39.370079040527344,0,0,0,0,-4.6932791519793682E-6,-39.370075225830078,0,0,39.370075225830078,-4.6932791519793682E-6,0,-0.4929661750793457,1.2716827392578125,-6.17210578918457,1]},{"mesh":10,"matrix":[39.370079040527344,0,0,0,0,-4.6932791519793682E-6,-39.370075225830078,0,0,39.370075225830078,-4.6932791519793682E-6,0,-0.4929661750793457,1.2716827392578125,-6.17210578918457,1]}],"meshes":[{"primitives":[{"attributes":{"POSITION":0,"TEXCOORD_0":1},"mode":4,"indices":2,"material":0}]},{"primitives":[{"attributes":{"POSITION":3,"TEXCOORD_0":4},"mode":4,"indices":5,"material":0}]},{"primitives":[{"attributes":{"POSITION":6,"TEXCOORD_0":7},"mode":4,"indices":8,"material":0}]},{"primitives":[{"attributes":{"POSITION":9,"TEXCOORD_0":10},"mode":4,"indices":11,"material":0}]},{"primitives":[{"attributes":{"POSITION":12,"TEXCOORD_0":13},"mode":4,"indices":14,"material":0}]},{"primitives":[{"attributes":{"POSITION":15,"TEXCOORD_0":16},"mode":4,"indices":17,"material":0}]},{"primitives":[{"attributes":{"POSITION":18,"TEXCOORD_0":19},"mode":4,"indices":20,"material":0}]},{"primitives":[{"attributes":{"POSITION":21,"TEXCOORD_0":22},"mode":4,"indices":23,"material":0}]},{"primitives":[{"attributes":{"POSITION":24,"TEXCOORD_0":25},"mode":4,"indices":26,"material":0}]},{"primitives":[{"attributes":{"POSITION":27,"TEXCOORD_0":28},"mode":4,"indices":29,"material":0}]},{"primitives":[{"attributes":{"POSITION":30,"TEXCOORD_0":31},"mode":4,"indices":32,"material":0}]}],"materials":[{"pbrMetallicRoughness":{"baseColorFactor":[1,1,1,1],"metallicFactor":0,"roughnessFactor":1,"baseColorTexture":{"index":0,"texCoord":0}},"alphaMode":"OPAQUE"}],"textures":[{"source":0,"sampler":0}],"images":[{"uri":"raw2_baseColor.jpeg"}],"samplers":[{"magFilter":9729,"wrapS":10497,"wrapT":10497}],"accessors":[{"bufferView":0,"byteOffset":0,"count":42398,"componentType":5126,"type":"VEC3","min":[-0.015780128538608551,-0.19213846325874329,-0.032024625688791275],"max":[0.023119386285543442,-0.14244173467159271,0.038793198764324188]},{"bufferView":1,"byteOffset":0,"count":42398,"componentType":5126,"type":"VEC2"},{"bufferView":2,"byteOffset":0,"count":160656,"componentType":5125,"type":"SCALAR"},{"bufferView":3,"byteOffset":0,"count":41465,"componentType":5126,"type":"VEC3","min":[-0.0041178190149366856,-0.17727632820606232,-0.032300762832164764],"max":[0.033492356538772583,-0.12240822613239288,0.034147068858146667]},{"bufferView":4,"byteOffset":0,"count":41465,"componentType":5126,"type":"VEC2"},{"bufferView":5,"byteOffset":0,"count":151086,"componentType":5125,"type":"SCALAR"},{"bufferView":6,"byteOffset":0,"count":1674,"componentType":5126,"type":"VEC3","min":[0.017127621918916702,-0.17182141542434692,0.015230332501232624],"max":[0.023252435028553009,-0.16560089588165283,0.035454966127872467]},{"bufferView":7,"byteOffset":0,"count":1674,"componentType":5126,"type":"VEC2"},{"bufferView":8,"byteOffset":0,"count":6300,"componentType":5125,"type":"SCALAR"},{"bufferView":9,"byteOffset":0,"count":976,"componentType":5126,"type":"VEC3","min":[0.021548599004745483,-0.1496148556470871,0.023435318842530251],"max":[0.026785222813487053,-0.14752890169620514,0.031866058707237244]},{"bufferView":10,"byteOffset":0,"count":976,"componentType":5126,"type":"VEC2"},{"bufferView":11,"byteOffset":0,"count":3270,"componentType":5125,"type":"SCALAR"},{"bufferView":12,"byteOffset":0,"count":1073,"componentType":5126,"type":"VEC3","min":[0.014617136679589748,-0.13885913789272308,-0.0087014725431799889],"max":[0.021027110517024994,-0.12002033740282059,0.0022715365048497915]},{"bufferView":13,"byteOffset":0,"count":1073,"componentType":5126,"type":"VEC2"},{"bufferView":14,"byteOffset":0,"count":3360,"componentType":5125,"type":"SCALAR"},{"bufferView":15,"byteOffset":0,"count":1550,"componentType":5126,"type":"VEC3","min":[0.017985086888074875,-0.13953272998332977,-0.012699558399617672],"max":[0.0305660218000412,-0.1247137263417244,-0.0057463650591671467]},{"bufferView":16,"byteOffset":0,"count":1550,"componentType":5126,"type":"VEC2"},{"bufferView":17,"byteOffset":0,"count":4608,"componentType":5125,"type":"SCALAR"},{"bufferView":18,"byteOffset":0,"count":1057,"componentType":5126,"type":"VEC3","min":[0.018941152840852737,-0.14459551870822906,0.004705152940005064],"max":[0.024851365014910698,-0.13158001005649567,0.016742870211601257]},{"bufferView":19,"byteOffset":0,"count":1057,"componentType":5126,"type":"VEC2"},{"bufferView":20,"byteOffset":0,"count":3450,"componentType":5125,"type":"SCALAR"},{"bufferView":21,"byteOffset":0,"count":1285,"componentType":5126,"type":"VEC3","min":[0.029262296855449677,-0.16310840845108032,-0.00733256246894598],"max":[0.043929193168878555,-0.15619866549968719,-0.0001620828261366114]},{"bufferView":22,"byteOffset":0,"count":1285,"componentType":5126,"type":"VEC2"},{"bufferView":23,"byteOffset":0,"count":4050,"componentType":5125,"type":"SCALAR"},{"bufferView":24,"byteOffset":0,"count":1112,"componentType":5126,"type":"VEC3","min":[0.024547165259718895,-0.15500357747077942,0.018937470391392708],"max":[0.031761102378368378,-0.15161390602588654,0.030453696846961975]},{"bufferView":25,"byteOffset":0,"count":1112,"componentType":5126,"type":"VEC2"},{"bufferView":26,"byteOffset":0,"count":3690,"componentType":5125,"type":"SCALAR"},{"bufferView":27,"byteOffset":0,"count":1417,"componentType":5126,"type":"VEC3","min":[0.023482456803321838,-0.15191809833049774,0.0061827073805034161],"max":[0.0330648235976696,-0.14257475733757019,0.015743348747491837]},{"bufferView":28,"byteOffset":0,"count":1417,"componentType":5126,"type":"VEC2"},{"bufferView":29,"byteOffset":0,"count":5040,"componentType":5125,"type":"SCALAR"},{"bufferView":30,"byteOffset":0,"count":701,"componentType":5126,"type":"VEC3","min":[0.016007775440812111,-0.1397065669298172,0.011962547898292542],"max":[0.018680408596992493,-0.13279682397842407,0.019545875489711761]},{"bufferView":31,"byteOffset":0,"count":701,"componentType":5126,"type":"VEC2"},{"bufferView":32,"byteOffset":0,"count":2280,"componentType":5125,"type":"SCALAR"}],"bufferViews":[{"buffer":0,"byteOffset":0,"byteLength":508776,"byteStride":12,"target":34962},{"buffer":0,"byteOffset":508776,"byteLength":339184,"byteStride":8,"target":34962},{"buffer":0,"byteOffset":847960,"byteLength":642624,"target":34963},{"buffer":0,"byteOffset":1490584,"byteLength":497580,"byteStride":12,"target":34962},{"buffer":0,"byteOffset":1988164,"byteLength":331720,"byteStride":8,"target":34962},{"buffer":0,"byteOffset":2319884,"byteLength":604344,"target":34963},{"buffer":0,"byteOffset":2924228,"byteLength":20088,"byteStride":12,"target":34962},{"buffer":0,"byteOffset":2944316,"byteLength":13392,"byteStride":8,"target":34962},{"buffer":0,"byteOffset":2957708,"byteLength":25200,"target":34963},{"buffer":0,"byteOffset":2982908,"byteLength":11712,"byteStride":12,"target":34962},{"buffer":0,"byteOffset":2994620,"byteLength":7808,"byteStride":8,"target":34962},{"buffer":0,"byteOffset":3002428,"byteLength":13080,"target":34963},{"buffer":0,"byteOffset":3015508,"byteLength":12876,"byteStride":12,"target":34962},{"buffer":0,"byteOffset":3028384,"byteLength":8584,"byteStride":8,"target":34962},{"buffer":0,"byteOffset":3036968,"byteLength":13440,"target":34963},{"buffer":0,"byteOffset":3050408,"byteLength":18600,"byteStride":12,"target":34962},{"buffer":0,"byteOffset":3069008,"byteLength":12400,"byteStride":8,"target":34962},{"buffer":0,"byteOffset":3081408,"byteLength":18432,"target":34963},{"buffer":0,"byteOffset":3099840,"byteLength":12684,"byteStride":12,"target":34962},{"buffer":0,"byteOffset":3112524,"byteLength":8456,"byteStride":8,"target":34962},{"buffer":0,"byteOffset":3120980,"byteLength":13800,"target":34963},{"buffer":0,"byteOffset":3134780,"byteLength":15420,"byteStride":12,"target":34962},{"buffer":0,"byteOffset":3150200,"byteLength":10280,"byteStride":8,"target":34962},{"buffer":0,"byteOffset":3160480,"byteLength":16200,"target":34963},{"buffer":0,"byteOffset":3176680,"byteLength":13344,"byteStride":12,"target":34962},{"buffer":0,"byteOffset":3190024,"byteLength":8896,"byteStride":8,"target":34962},{"buffer":0,"byteOffset":3198920,"byteLength":14760,"target":34963},{"buffer":0,"byteOffset":3213680,"byteLength":17004,"byteStride":12,"target":34962},{"buffer":0,"byteOffset":3230684,"byteLength":11336,"byteStride":8,"target":34962},{"buffer":0,"byteOffset":3242020,"byteLength":20160,"target":34963},{"buffer":0,"byteOffset":3262180,"byteLength":8412,"byteStride":12,"target":34962},{"buffer":0,"byteOffset":3270592,"byteLength":5608,"byteStride":8,"target":34962},{"buffer":0,"byteOffset":3276200,"byteLength":9120,"target":34963}],"buffers":[{"byteLength":3285320,"uri":"scene2.bin"}]}